<svg xmlns="http://www.w3.org/2000/svg" width="900" height="470" viewBox="0 0 900 470">
<rect width="100%" height="100%" fill="#f7f5ee"/>
<text x="40" y="35" font-family="Arial,sans-serif" font-size="22" font-weight="700" fill="#173f35">RuyiTutor RAG Ablation: Reference Coverage</text>
<line x1="180" y1="380.0" x2="850" y2="380.0" stroke="#d7dfda"/>
<text x="135" y="385.0" font-family="Arial" font-size="13" fill="#65736e">0%</text>
<line x1="180" y1="318.0" x2="850" y2="318.0" stroke="#d7dfda"/>
<text x="135" y="323.0" font-family="Arial" font-size="13" fill="#65736e">20%</text>
<line x1="180" y1="256.0" x2="850" y2="256.0" stroke="#d7dfda"/>
<text x="135" y="261.0" font-family="Arial" font-size="13" fill="#65736e">40%</text>
<line x1="180" y1="194.0" x2="850" y2="194.0" stroke="#d7dfda"/>
<text x="135" y="199.0" font-family="Arial" font-size="13" fill="#65736e">60%</text>
<line x1="180" y1="132.0" x2="850" y2="132.0" stroke="#d7dfda"/>
<text x="135" y="137.0" font-family="Arial" font-size="13" fill="#65736e">80%</text>
<line x1="180" y1="70.0" x2="850" y2="70.0" stroke="#d7dfda"/>
<text x="135" y="75.0" font-family="Arial" font-size="13" fill="#65736e">100%</text>
<rect x="235" y="181.879" width="115" height="198.121" rx="8" fill="#9aa7a2"/>
<text x="292.5" y="171.879" text-anchor="middle" font-family="Arial" font-size="15" font-weight="700" fill="#173f35">63.9%</text>
<text x="292.5" y="410" text-anchor="middle" font-family="Arial" font-size="14" fill="#263b35">Dify RAG</text>
<rect x="390" y="217.498" width="115" height="162.502" rx="8" fill="#5b9b83"/>
<text x="447.5" y="207.498" text-anchor="middle" font-family="Arial" font-size="15" font-weight="700" fill="#173f35">52.4%</text>
<text x="447.5" y="410" text-anchor="middle" font-family="Arial" font-size="14" fill="#263b35">GraphRAG</text>
<rect x="545" y="227.232" width="115" height="152.768" rx="8" fill="#1f6b55"/>
<text x="602.5" y="217.232" text-anchor="middle" font-family="Arial" font-size="15" font-weight="700" fill="#173f35">49.3%</text>
<text x="602.5" y="410" text-anchor="middle" font-family="Arial" font-size="14" fill="#263b35">Hybrid RAG</text>
<rect x="700" y="272.988" width="115" height="107.012" rx="8" fill="#e98b54"/>
<text x="757.5" y="262.988" text-anchor="middle" font-family="Arial" font-size="15" font-weight="700" fill="#173f35">34.5%</text>
<text x="757.5" y="410" text-anchor="middle" font-family="Arial" font-size="14" fill="#263b35">Pure LLM</text>
<text x="450" y="450" text-anchor="middle" font-family="Arial" font-size="12" fill="#71807c">8 representative questions; automatic reference-token coverage, with raw outputs retained for manual review.</text>
</svg>